# xmcd CD database file
#
# Track frame offsets:
#	150
#	38210
#	83340
#	117730
#	155244
#	192010
#	224003
#	252012
#	285041
#
# Disc length: 4428 seconds
#
# Revision: 0
# Processed by: cddbd v1.5.1PL0 Copyright (c) Steve Scherf et al.
# Submitted via: CDex 1.51
#
DISCID=77114a09
DTITLE=Bob Thompson Unit - Caught In the Act
DYEAR=2000
DGENRE=Jazz
TTITLE0=Festival
TTITLE1=My One and Only Love
TTITLE2=Bag's Groove
TTITLE3=Delilah
TTITLE4=Shortnin' Bread
TTITLE5=Summertime
TTITLE6=Freddie the Freeloader
TTITLE7=Autumn Leaves
TTITLE8=Say What You Want
EXTD=YEAR: 2000
EXTT0=
EXTT1=
EXTT2=
EXTT3=
EXTT4=
EXTT5=
EXTT6=
EXTT7=
EXTT8=
PLAYORDER=
